<?xml version="1.0" standalone="no"?>
<!DOCTYPE svg PUBLIC "-//W3C//DTD SVG 20010904//EN"
 "http://www.w3.org/TR/2001/REC-SVG-20010904/DTD/svg10.dtd">
<svg version="1.0" xmlns="http://www.w3.org/2000/svg"
 width="450.000000pt" height="250.000000pt" viewBox="0 0 450.000000 250.000000"
 preserveAspectRatio="xMidYMid meet">

<g transform="translate(0.000000,250.000000) scale(0.100000,-0.100000)"
fill="#000000" stroke="none">
<path d="M517 1599 c-217 -51 -327 -296 -227 -507 49 -104 136 -167 268 -192
81 -16 208 -7 267 19 l45 20 0 126 c0 133 8 165 40 165 11 0 20 5 20 10 0 6
-43 10 -110 10 -112 0 -136 -8 -77 -25 l32 -10 3 -127 3 -126 -37 -12 c-49
-16 -149 -8 -206 18 -61 27 -124 86 -153 141 -49 98 -55 227 -15 316 51 115
191 169 340 131 82 -21 112 -42 128 -94 8 -23 18 -42 23 -42 5 0 10 32 11 70
0 39 1 75 2 82 2 27 -269 48 -357 27z"/>
<path d="M2425 1599 c-4 -6 -58 -150 -120 -320 -62 -171 -121 -319 -130 -329
-9 -10 -30 -22 -46 -25 -60 -13 -25 -25 76 -25 100 0 134 10 80 24 -33 8 -32
21 8 141 l34 100 98 0 99 0 43 -114 c24 -64 41 -122 37 -133 -5 -17 5 -18 200
-18 186 0 236 6 190 24 -9 3 -24 6 -34 6 -10 0 -21 8 -25 18 -7 15 -27 483
-21 489 1 1 74 -78 163 -175 212 -232 358 -376 372 -368 8 5 11 105 11 330 0
335 1 346 42 346 10 0 18 6 18 14 0 12 -21 15 -105 15 -85 0 -105 -3 -105 -15
0 -9 10 -14 29 -14 16 0 34 -6 40 -14 7 -8 13 -101 17 -262 l6 -249 -68 75
c-337 367 -454 490 -465 490 -5 0 -9 -128 -9 -297 0 -347 -3 -371 -38 -384
-36 -14 -91 1 -114 31 -10 14 -52 113 -94 220 -41 107 -95 248 -120 313 -44
113 -55 130 -69 106z m39 -264 c20 -55 36 -106 36 -112 0 -9 -22 -13 -75 -13
-55 0 -75 3 -75 13 0 11 42 145 65 206 8 20 10 16 49 -94z"/>
<path d="M1000 1591 c0 -6 15 -14 32 -19 28 -7 34 -14 40 -48 8 -48 8 -435 -1
-524 -5 -56 -9 -65 -29 -70 -13 -3 -23 -10 -23 -15 1 -6 59 -10 154 -10 l154
0 49 30 c122 76 130 234 16 321 -22 18 -47 34 -54 37 -10 3 -7 11 8 28 78 87
70 208 -18 256 -26 14 -63 18 -180 21 -100 3 -148 0 -148 -7z m268 -47 c34
-24 52 -68 52 -129 0 -49 -4 -60 -30 -86 -26 -26 -36 -30 -77 -27 l-48 3 -3
128 -3 127 43 0 c24 0 54 -7 66 -16z m-5 -288 c76 -28 120 -95 121 -188 1 -52
-2 -61 -32 -90 -30 -31 -37 -33 -98 -33 -92 0 -94 4 -94 182 l0 143 33 0 c17
-1 49 -7 70 -14z"/>
<path d="M1610 1584 c0 -8 10 -14 23 -14 46 0 47 -7 47 -321 0 -257 -2 -300
-16 -313 -8 -9 -22 -16 -30 -16 -8 0 -14 -4 -14 -10 0 -6 57 -10 153 -10 173
0 209 10 264 73 82 94 56 235 -57 299 l-38 22 30 43 c38 53 49 109 32 160 -27
79 -91 102 -281 102 -91 0 -113 -3 -113 -15z m255 -40 c67 -31 89 -154 39
-213 -23 -28 -32 -31 -80 -31 l-54 0 0 123 c0 68 3 127 7 130 11 12 54 8 88
-9z m23 -298 c63 -33 101 -95 104 -170 4 -94 -48 -143 -142 -134 -77 8 -80 15
-80 180 l0 138 45 0 c26 0 58 -6 73 -14z"/>
<path d="M3572 1588 c3 -7 18 -15 34 -18 l29 -5 5 -170 c4 -153 6 -167 19
-145 8 14 27 41 43 60 27 33 28 40 28 135 0 55 4 105 8 111 4 7 17 14 30 15
12 2 24 9 25 14 1 6 -43 11 -111 13 -89 2 -113 0 -110 -10z"/>
<path d="M3960 1591 c0 -6 5 -13 10 -16 6 -3 10 -10 10 -14 0 -5 -65 -77 -145
-161 -140 -148 -185 -211 -185 -260 l0 -24 17 24 c28 41 273 298 341 357 35
31 80 61 100 68 67 24 50 35 -52 35 -53 0 -96 -4 -96 -9z"/>
<path d="M3807 1212 l-26 -27 117 -122 c64 -67 133 -129 152 -139 24 -12 59
-18 112 -18 81 -1 107 14 44 25 -51 8 -96 43 -236 184 -69 69 -127 125 -130
125 -4 0 -18 -12 -33 -28z"/>
<path d="M3693 1089 c-31 -40 -44 -69 -57 -131 -4 -16 -14 -28 -26 -30 -12 -2
-21 -7 -20 -13 0 -6 44 -10 110 -10 66 0 110 4 110 10 0 6 -12 11 -27 13 -15
2 -32 8 -38 13 -5 5 -12 50 -15 100 l-5 90 -32 -42z"/>
</g>
</svg>
